<?xml version="1.0" standalone="no"?>
<!DOCTYPE svg PUBLIC "-//W3C//DTD SVG 1.1//EN" "http://www.w3.org/Graphics/SVG/1.1/DTD/svg11.dtd" >
<svg xmlns="http://www.w3.org/2000/svg">
<metadata>Generated by IcoMoon</metadata>
<defs>
<font id="icomoon" horiz-adv-x="1024">
<font-face units-per-em="1024" ascent="960" descent="-64" />
<missing-glyph horiz-adv-x="1024" />
<glyph unicode="&#x20;" horiz-adv-x="512" d="" />
<glyph unicode="&#xe900;" glyph-name="pay" d="M779.288 65.423h-602.355c-62.28 0-112.944 50.668-112.944 112.943v539.268c0 62.28 50.663 112.944 112.944 112.944h602.355c62.276 0 112.944-50.664 112.944-112.944v-88.519c0-10.681-8.657-19.331-19.333-19.331-10.677 0-19.333 8.65-19.333 19.331v88.519c0 40.958-33.321 74.278-74.279 74.278h-602.354c-40.958 0-74.277-33.321-74.277-74.278v-539.268c0-40.956 33.32-74.277 74.277-74.277h602.355c40.958 0 74.279 33.321 74.279 74.277v104.803c0 10.676 8.656 19.332 19.333 19.332s19.333-8.656 19.333-19.332v-104.803c0-62.276-50.669-112.943-112.945-112.943zM877.983 327.938h-270.651c-44.886 0-81.401 36.515-81.401 81.4v91.57c0 44.884 36.515 81.4 81.4 81.4h270.652c44.884 0 81.4-36.516 81.4-81.4v-91.57c0-44.886-36.515-81.4-81.4-81.4zM607.332 543.642c-23.562 0-42.735-19.167-42.735-42.734v-91.57c0-23.568 19.172-42.736 42.735-42.736h270.65c23.566 0 42.74 19.167 42.74 42.735v91.571c0 23.567-19.173 42.734-42.74 42.734h-270.65zM657.188 418.493c-20.196 0-36.63 16.43-36.63 36.631 0 20.197 16.434 36.626 36.63 36.626 20.198 0 36.633-16.429 36.633-36.626 0-20.202-16.435-36.631-36.633-36.631zM657.188 457.158c-1.123-0.001-2.032-0.911-2.033-2.034v0c0-1.126 0.913-2.040 2.033-2.040 1.125 0 2.037 0.912 2.037 2.036s-0.912 2.036-2.037 2.036v0z" />
<glyph unicode="&#xe901;" glyph-name="all" horiz-adv-x="1025" d="M294.81 678.625h682.173c25.997 0 47.072 21.075 47.072 47.072s-21.075 47.072-47.072 47.072h-682.173c-25.997 0-47.072-21.075-47.072-47.072s21.074-47.072 47.072-47.072zM2.145 722.627c0-40.691 32.987-73.678 73.678-73.678s73.678 32.987 73.678 73.678v0c0 40.691-32.987 73.678-73.678 73.678s-73.678-32.987-73.678-73.678v0zM976.983 498.142h-682.173c-25.997 0-47.072-21.075-47.072-47.072s21.075-47.072 47.072-47.072h682.173c25.997 0 47.072 21.075 47.072 47.072s-21.075 47.072-47.072 47.072zM2.145 448c0-40.691 32.987-73.678 73.678-73.678s73.678 32.987 73.678 73.678v0c0 40.691-32.987 73.678-73.678 73.678s-73.678-32.987-73.678-73.678v0zM976.983 223.515h-682.173c-25.997 0-47.072-21.075-47.072-47.072s21.075-47.072 47.072-47.072h682.173c25.997 0 47.072 21.075 47.072 47.072s-21.075 47.072-47.072 47.072zM2.145 173.373c0-40.691 32.987-73.678 73.678-73.678s73.678 32.987 73.678 73.678v0c0 40.691-32.987 73.678-73.678 73.678s-73.678-32.987-73.678-73.678v0z" />
<glyph unicode="&#xe902;" glyph-name="Completed" d="M512 0c247.424 0 448 200.576 448 448s-200.576 448-448 448v0c-247.424 0-448-200.576-448-448s200.576-448 448-448v0zM512-64c-282.77 0-512 229.23-512 512s229.23 512 512 512v0c282.77 0 512-229.23 512-512s-229.23-512-512-512v0zM679.552 596.608c5.91 7.552 15.026 12.361 25.265 12.361 17.673 0 32-14.327 32-32 0-8.326-3.179-15.909-8.39-21.601l0.022 0.024-216-256c-5.908-6.975-14.673-11.374-24.465-11.374-8.653 0-16.503 3.434-22.263 9.014l0.008-0.008-168 162.944c-6.529 5.882-10.616 14.367-10.616 23.806 0 17.673 14.327 32 32 32 9.104 0 17.321-3.802 23.148-9.905l0.012-0.012 143.36-139.008 193.92 229.76z" />
<glyph unicode="&#xe903;" glyph-name="evaluated" d="M809.984 680.448h-726.016c-12.288 0-22.528-10.24-22.528-22.528v-495.104c0-12.288 10.24-22.528 22.528-22.528h174.080v-115.2c0-8.704 5.12-16.896 13.312-20.48 3.072-1.536 6.144-2.048 9.216-2.048 5.12 0 10.752 2.048 14.848 5.632l152.576 132.096h361.984c12.288 0 22.528 10.24 22.528 22.528v495.104c0 12.288-9.728 22.528-22.528 22.528zM772.608 192.512h-332.8c-5.12 0-10.24-2.048-14.336-5.12l-116.224-100.864v84.48c0 11.776-9.728 21.504-21.504 21.504h-166.4v430.592h651.264v-430.592zM652.288 480.256h-409.6c-12.288 0-22.528 12.288-22.528 27.648s10.24 27.648 22.528 27.648h409.6c12.288 0 22.528-12.288 22.528-27.648s-10.24-27.648-22.528-27.648zM541.184 304.64h-293.888c-15.36 0-28.16 12.288-28.16 27.648s12.288 27.648 28.16 27.648h293.888c15.36 0 27.648-12.288 27.648-27.648s-12.288-27.648-27.648-27.648zM933.376 832h-713.216c-15.872 0-28.672-12.8-28.672-28.672v-88.576c0-3.584 3.072-6.144 6.144-6.144h47.104c3.584 0 6.144 3.072 6.144 6.144v53.76c0 3.584 3.072 6.144 6.144 6.144h638.976c3.584 0 6.144-3.072 6.144-6.144v-417.792c0-3.584-3.072-6.144-6.144-6.144h-22.528c-3.584 0-6.144-3.072-6.144-6.144v-39.936c0-3.584 3.072-6.144 6.144-6.144h59.904c15.872 0 29.184 12.8 29.184 29.184v481.792c0 15.872-13.312 28.672-29.184 28.672z" />
<glyph unicode="&#xe904;" glyph-name="huabei" d="M537.74 693.527c43.962-9.821 86.179 8.215 94.324 40.262s-20.899 65.978-64.838 75.799c-44.009 9.821-86.202-8.239-94.324-40.285-8.145-32.070 20.876-65.978 64.838-75.799zM949.295 622.359c-10.117 28.272-21.119 52.204-33.897 75.006l1.269-2.464c-36.224 64.792-85.072 118.407-143.604 159.053l-1.548 1.017c-7.798 5.2-17.922 11.388-28.253 17.253l-3.188 1.668c-108.335 58.787-163.84 45.847-162.909 1.769 0.675-32.954 30.72-41.1 57.344-53.9 90.554-43.404 139.404-110.15 114.572-164.305-22.807-49.687-107.567-67.235-195.375-35.537-89.833 32.419-207.686 109.661-223.535 22.528-13.382-73.612 99.212-76.009 216.529-196.422 50.269-51.572 63.209-141.335 33.815-213.457-63.232-108.916-244.41-83.456-326.563 5.446-94.371 102.097-82.083 208.5-77.219 234.682 11.45 52.783 32.163 95.884 48.221 121.949 16.291 28.742 24.669 47.802 24.367 70.889-0.465 37.236-26.461 61.719-62.557 63.884-43.055 2.56-74.938-24.529-93.556-64.559-29.431-60.796-46.631-132.225-46.631-207.671 0-35.871 3.888-70.834 11.266-104.49l-0.591 3.216c0.349-1.978 0.628-3.956 1.024-5.958 2.095-10.473 4.794-20.713 7.913-30.673l-0.070 0.047s4.352-17.059 14.755-40.262c3.351-8.425 6.749-16.873 10.473-25.018-0.096 0.108-0.195 0.206-0.299 0.299l-0.004 0.003 0.745-1.233c101.562-219.904 351.581-328.564 579.212-243.759 241.524 89.996 366.15 363.567 278.295 611.002z" />
<glyph unicode="&#xe905;" glyph-name="huanbao" d="M202.285 911c-29.415-126.409-31.415-233.647-15.295-324.31 17.007 71.903 48.513 104.512 48.513 104.512-31.412-84.548-23.416-176.004-18.91-210.261 17.863-46.204 40.581-87.24 66.726-123.208-0.096 129.77 50.416 204.841 50.416 204.841-26.524-122.322 7.012-248.033 17.293-281.719 32.49-31.057 66.885-56.884 100.643-78.306-33.028 154.36 11.582 255.291 11.582 255.291-4.95-131.258 49.117-256.020 70.565-300.29 81.987-38.438 145.636-50.862 145.636-50.862s103.754 295.6-178.983 497.558c-209.886 150.050-298.186 306.754-298.186 306.754zM638.748 72.654c-75.168 18.761-472.603 137.66-503.634 561.824 0 0-70.31-255.323 82.811-492.868 111.116-172.55 274.553-165.135 366.406-124.286 195.386-16.89 313.895 55.33 313.895 55.33-87.827-31.817-235.81-4.69-259.478 0z" />
<glyph unicode="&#xe906;" glyph-name="qq" d="M511.991 897.448c-247.645 0-448.462-200.817-448.462-448.462s200.818-448.46 448.462-448.46c247.645 0 448.46 200.816 448.46 448.46s-200.815 448.462-448.46 448.462zM763.777 311.568c-4.683-9.911-23.595-9.727-31.518 0-6.481 8.099-13.328 15.847-21.071 25.032-6.306-15.307-10.988-27.917-16.929-39.982-1.983-4.143-7.207-6.666-10.269-10.447-2.52-3.24-5.584-7.202-5.765-10.809 0-2.7 4.143-7.202 7.025-7.924 20.53-4.142 26.655-21.071 32.602-37.104 6.301-16.567-9.19-42.862-27.563-48.087-25.393-7.563-50.609-15.671-77.802-12.245-26.655 3.421-53.854 6.485-75.287 23.774-15.847 12.787-28.456 11.705-44.844 1.618-30.619-18.547-64.299-28.634-100.682-25.213-24.313 2.163-47.905 6.48-69.159 20.71-18.91 12.787-18.91 37.824-5.402 55.294 7.924 10.268 16.929 16.572 28.095 21.436 2.702 1.259 5.225 9.542 3.603 11.882-10.445 15.672-22.153 30.622-34.579 47.369-8.464-7.206-17.111-16.212-27.196-22.692-12.248-7.563-19.271-2.88-25.937 9.366-17.471 32.059-4.322 61.058 8.646 89.331 9.724 21.070 25.213 39.267 34.038 60.337 6.305 14.587 5.404 32.236 8.466 48.446 1.26 6.845 4.323 13.509 6.123 20.172 5.763 20.532 11.708 41.245 16.929 61.957 15.312 60.155 50.432 104.461 107.706 128.416 31.876 13.328 66.999 18.552 100.857 11.347 32.061-6.664 62.496-20.712 87.528-43.586 36.927-34.040 57.638-76.905 67.179-125.533 1.805-9.366 5.945-18.191 8.83-27.196 5.584-17.11 12.426-33.318 9.541-52.771-2.699-17.65 9.366-32.778 21.433-44.125 28.464-26.655 42.692-93.474 25.402-128.773z" />
<glyph unicode="&#xe907;" glyph-name="add_circle" d="M726 406v84h-172v172h-84v-172h-172v-84h172v-172h84v172h172zM512 874q176 0 301-125t125-301-125-301-301-125-301 125-125 301 125 301 301 125z" />
<glyph unicode="&#xe908;" glyph-name="arrow_lift" d="M246.784 491.691l443.051 442.709c24.917 24.917 62.464 24.917 87.381 0s24.917-62.464 0-87.381l-399.36-399.36 399.36-399.36c24.917-24.917 24.917-62.464 0-87.381s-62.464-24.917-87.381 0l-443.051 443.392c-24.917 24.917-24.917 62.464 0 87.381z" />
<glyph unicode="&#xe909;" glyph-name="check_circle" d="M426 234l384 384-60 62-324-324-152 152-60-60zM512 874q176 0 301-125t125-301-125-301-301-125-301 125-125 301 125 301 301 125z" />
<glyph unicode="&#xe90a;" glyph-name="close" d="M810 686l-238-238 238-238-60-60-238 238-238-238-60 60 238 238-238 238 60 60 238-238 238 238z" />
<glyph unicode="&#xe90b;" glyph-name="favorite" d="M512 50l-62 56c-220 200-364 330-364 492 0 132 102 234 234 234 74 0 146-36 192-90 46 54 118 90 192 90 132 0 234-102 234-234 0-162-144-294-364-494z" />
<glyph unicode="&#xe90c;" glyph-name="keyboard_arrow_right" d="M366 262l196 196-196 196 60 60 256-256-256-256z" />
<glyph unicode="&#xe90d;" glyph-name="remove_circle_outline" d="M512 106q140 0 241 101t101 241-101 241-241 101-241-101-101-241 101-241 241-101zM512 874q176 0 301-125t125-301-125-301-301-125-301 125-125 301 125 301 301 125zM298 490h428v-84h-428v84z" />
<glyph unicode="&#xe90e;" glyph-name="shopping_cart" d="M726 192q34 0 59-26t25-60-25-59-59-25-60 25-26 59 26 60 60 26zM42 874h140l40-84h632q18 0 30-13t12-31q0-10-6-20l-152-276q-24-44-74-44h-318l-38-70-2-6q0-10 10-10h494v-86h-512q-34 0-59 26t-25 60q0 20 10 40l58 106-154 324h-86v84zM298 192q34 0 60-26t26-60-26-59-60-25-59 25-25 59 25 60 59 26z" />
<glyph unicode="&#xe90f;" glyph-name="thumb_down" d="M810 832h172v-512h-172v512zM640 832q34 0 60-26t26-60v-426q0-34-26-60l-280-282-46 46q-18 18-18 44v14l42 196h-270q-34 0-60 25t-26 59l2 4h-2v82q0 16 6 32l130 300q20 52 78 52h384z" />
<glyph unicode="&#xe910;" glyph-name="thumb_up" d="M982 534l-2-4h2v-82q0-16-6-32l-130-300q-20-52-78-52h-384q-34 0-60 26t-26 60v426q0 34 26 60l280 282 46-46q18-18 18-44v-14l-42-196h270q34 0 60-25t26-59zM42 64v512h172v-512h-172z" />
<glyph unicode="&#xe911;" glyph-name="weixin" d="M375.692 582.105c-13.87 0-27.838-9.17-27.838-23.071 0-13.835 13.968-23.104 27.838-23.104 13.868 0 23.073 9.269 23.073 23.104 0 13.934-9.206 23.071-23.073 23.071zM505.017 535.93c13.967 0 23.136 9.269 23.136 23.104 0 13.901-9.17 23.071-23.136 23.071-13.837 0-27.706-9.137-27.706-23.071 0-13.835 13.9-23.104 27.706-23.104zM565.094 448.048c-9.17 0-18.47-9.267-18.47-18.469 0-9.334 9.3-18.471 18.47-18.471 14.031 0 23.137 9.137 23.137 18.471 0 9.202-9.106 18.47-23.137 18.47zM666.746 448.048c-9.138 0-18.372-9.267-18.372-18.469 0-9.334 9.268-18.471 18.372-18.471 13.903 0 23.137 9.137 23.137 18.471 0 9.202-9.235 18.47-23.137 18.47zM860.084 883.107h-696.17c-48.060 0-87.021-38.96-87.021-87.022v-696.17c0-48.060 38.96-87.020 87.022-87.020h696.17c48.060 0 87.021 38.96 87.021 87.020v696.17c0 48.061-38.961 87.022-87.022 87.022zM435.736 346.297c-23.072 0-41.608 4.702-64.712 9.238l-64.613-32.374 18.472 55.574c-46.274 32.373-73.947 74.045-73.947 124.79 0 87.947 83.213 157.161 184.8 157.161 90.884 0 170.474-55.314 186.465-129.78-5.94 0.651-11.845 1.106-17.85 1.106-87.75 0-157.063-65.525-157.095-146.259 0-13.477 2.121-26.402 5.711-38.77-5.68-0.423-11.422-0.685-17.231-0.685zM708.286 281.521l13.903-46.206-50.678 27.803c-18.471-4.634-37.040-9.235-55.445-9.235-87.913 0-157.16 60.012-157.16 134.089 0 73.849 69.216 134.090 157.16 134.090 83.050 0 156.997-60.208 156.997-134.090 0-41.674-27.673-78.58-64.777-106.45z" />
<glyph unicode="&#xe912;" glyph-name="yinghangka" d="M792.607 136.63h-553.484c-50.946 0-92.246 41.3-92.246 92.249v415.11c0 50.946 41.3 92.246 92.246 92.246h553.484c50.941 0 92.246-41.3 92.246-92.246v-415.11c-0.001-50.949-41.305-92.249-92.246-92.249zM239.124 182.755h553.484c25.471 0 46.12 20.651 46.12 46.125v322.861h-645.727v-322.861c0-25.474 20.65-46.125 46.125-46.125h-0.002zM792.607 690.115h-553.484c-25.471 0-46.121-20.65-46.121-46.126v-46.125h645.727v46.125c-0.001 25.475-20.647 46.126-46.121 46.126zM262.188 413.37h230.615c12.735 0 23.064-10.321 23.064-23.060 0-12.735-10.329-23.064-23.064-23.064h-230.615c-12.74 0-23.064 10.329-23.064 23.064 0 12.739 10.324 23.060 23.064 23.060zM262.188 321.126h184.495c12.735 0 23.060-10.322 23.060-23.060 0-12.736-10.325-23.064-23.060-23.064h-184.495c-12.74 0-23.064 10.328-23.064 23.064 0 12.738 10.324 23.060 23.064 23.060zM585.052 413.37h46.12c12.735 0 23.064-10.321 23.064-23.060 0-12.735-10.329-23.064-23.064-23.064h-46.12c-12.743 0-23.064 10.329-23.064 23.064-0.001 12.739 10.32 23.060 23.064 23.060z" />
<glyph unicode="&#xe913;" glyph-name="zhifubao" d="M938.701 290.475v420.113c0 90.556-73.523 164.079-164.147 164.079h-525.175c-90.556 0-164.079-73.489-164.079-164.079v-525.21c0-90.556 73.455-164.079 164.079-164.079h525.21c80.725 0 147.866 58.368 161.553 135.1-43.52 18.842-232.107 100.284-330.377 147.183-74.786-90.59-153.088-144.93-271.121-144.93s-196.813 72.704-187.358 161.655c6.246 58.402 46.285 153.907 220.297 137.523 91.682-8.602 133.666-25.737 208.418-50.415 19.354 35.43 35.43 74.513 47.616 116.019h-331.571v32.87h164.045v58.982h-200.090v36.181h200.124v85.197c0 0 1.809 13.312 16.521 13.312h82.057v-98.475h213.333v-36.181h-213.333v-58.982h174.046c-16.009-65.126-40.277-124.962-70.69-177.22 50.551-18.295 280.644-88.644 280.644-88.644v0 0 0zM321.57 215.006c-124.723 0-144.452 78.746-137.83 111.65 6.554 32.734 42.667 75.503 112.026 75.503 79.667 0 151.040-20.446 236.715-62.089-60.177-78.404-134.11-125.065-210.91-125.065v0 0z" />
</font>
</defs>
</svg>
